<svg width="46" height="46" viewBox="0 0 46 46" fill="none" xmlns="http://www.w3.org/2000/svg">
<path fill-rule="evenodd" clip-rule="evenodd" d="M39.7273 0C43.1916 0 46 2.8084 46 6.27273V39.7273C46 43.1916 43.1916 46 39.7273 46H6.27273C2.8084 46 0 43.1916 0 39.7273V6.27273C0 2.8084 2.8084 0 6.27273 0H39.7273ZM39.7273 4.18182C40.882 4.18182 41.8182 5.11795 41.8182 6.27273V39.7273C41.8182 40.882 40.882 41.8182 39.7273 41.8182H29.2727V27.1817H33.6138C34.5138 27.1817 35.3128 26.6057 35.5974 25.7519L36.5237 22.973C36.8622 21.9576 36.1064 20.9089 35.036 20.9089H29.2727V16.7271C29.2727 15.6816 30.3182 14.6362 31.3636 14.6362H35.5455C36.7002 14.6362 37.6364 13.7001 37.6364 12.5453V11.1109C37.6364 10.4355 37.2049 9.82998 36.5519 9.65764C33.8111 8.93435 31.3636 8.93435 31.3636 8.93435C26.1364 8.93435 23 12.5453 23 15.6816V20.9089H18.8182C17.6634 20.9089 16.7273 21.8451 16.7273 22.9998V25.0907C16.7273 26.2455 17.6634 27.1817 18.8182 27.1817H23V41.8182H6.27273C5.11795 41.8182 4.18182 40.882 4.18182 39.7273V6.27273C4.18182 5.11795 5.11795 4.18182 6.27273 4.18182H39.7273Z" fill="#151618"/>
</svg>
