<svg width="43" height="44" viewBox="0 0 43 44" fill="none" xmlns="http://www.w3.org/2000/svg">
<path fill-rule="evenodd" clip-rule="evenodd" d="M21.5 33.7273C27.9768 33.7273 33.2273 28.4768 33.2273 22C33.2273 15.5232 27.9768 10.2727 21.5 10.2727C15.0232 10.2727 9.77273 15.5232 9.77273 22C9.77273 28.4768 15.0232 33.7273 21.5 33.7273ZM21.5 29.8182C25.8179 29.8182 29.3182 26.3179 29.3182 22C29.3182 17.6821 25.8179 14.1818 21.5 14.1818C17.1821 14.1818 13.6818 17.6821 13.6818 22C13.6818 26.3179 17.1821 29.8182 21.5 29.8182Z" fill="#0F0F0F"/>
<path d="M33.2273 8.31818C32.1478 8.31818 31.2727 9.19326 31.2727 10.2727C31.2727 11.3522 32.1478 12.2273 33.2273 12.2273C34.3067 12.2273 35.1818 11.3522 35.1818 10.2727C35.1818 9.19326 34.3067 8.31818 33.2273 8.31818Z" fill="#0F0F0F"/>
<path fill-rule="evenodd" clip-rule="evenodd" d="M1.2782 6.9032C0 9.4118 0 12.6957 0 19.2636V24.7364C0 31.3043 0 34.5882 1.2782 37.0968C2.40253 39.3034 4.19657 41.0975 6.4032 42.2218C8.9118 43.5 12.1957 43.5 18.7636 43.5H24.2364C30.8043 43.5 34.0882 43.5 36.5968 42.2218C38.8034 41.0975 40.5975 39.3034 41.7218 37.0968C43 34.5882 43 31.3043 43 24.7364V19.2636C43 12.6957 43 9.4118 41.7218 6.9032C40.5975 4.69657 38.8034 2.90253 36.5968 1.7782C34.0882 0.5 30.8043 0.5 24.2364 0.5H18.7636C12.1957 0.5 8.9118 0.5 6.4032 1.7782C4.19657 2.90253 2.40253 4.69657 1.2782 6.9032ZM24.2364 4.40909H18.7636C15.4152 4.40909 13.139 4.41213 11.3795 4.55588C9.66571 4.69591 8.78927 4.94971 8.17789 5.26122C6.70681 6.01078 5.51078 7.20681 4.76122 8.67789C4.44971 9.28927 4.19591 10.1657 4.05588 11.8795C3.91213 13.639 3.90909 15.9152 3.90909 19.2636V24.7364C3.90909 28.0848 3.91213 30.361 4.05588 32.1205C4.19591 33.8343 4.44971 34.7107 4.76122 35.3221C5.51078 36.7932 6.70681 37.9892 8.17789 38.7388C8.78927 39.0503 9.66571 39.3041 11.3795 39.4441C13.139 39.5879 15.4152 39.5909 18.7636 39.5909H24.2364C27.5848 39.5909 29.861 39.5879 31.6205 39.4441C33.3343 39.3041 34.2107 39.0503 34.8221 38.7388C36.2932 37.9892 37.4892 36.7932 38.2388 35.3221C38.5503 34.7107 38.8041 33.8343 38.9441 32.1205C39.0879 30.361 39.0909 28.0848 39.0909 24.7364V19.2636C39.0909 15.9152 39.0879 13.639 38.9441 11.8795C38.8041 10.1657 38.5503 9.28927 38.2388 8.67789C37.4892 7.20681 36.2932 6.01078 34.8221 5.26122C34.2107 4.94971 33.3343 4.69591 31.6205 4.55588C29.861 4.41213 27.5848 4.40909 24.2364 4.40909Z" fill="#0F0F0F"/>
</svg>
