<svg width="45" height="42" viewBox="0 0 45 42" fill="none" xmlns="http://www.w3.org/2000/svg">
<path fill-rule="evenodd" clip-rule="evenodd" d="M38.4193 3.24042C39.1322 3.059 39.6293 2.88061 40.0365 2.69325C40.6072 2.43067 41.0804 2.11613 41.8279 1.58638C42.456 1.14118 43.2611 1.10241 43.9239 1.48544C44.5867 1.86848 45 2.61143 45 3.41968C45 5.79403 44.7246 7.74004 44.0867 9.45265C43.5501 10.8932 42.7961 12.0632 41.8943 13.1281C41.5134 20.5155 39.5222 26.3168 36.4779 30.712C33.3226 35.2674 29.1245 38.1847 24.6991 39.8183C20.2867 41.4471 15.6246 41.8111 11.4479 41.2597C7.29864 40.7118 3.46319 39.2366 0.789805 37.0037C0.0576917 36.3922 -0.199657 35.3282 0.162792 34.4114C0.52524 33.4946 1.41676 32.9544 2.33492 33.0953C4.9653 33.4989 7.49734 32.8567 9.57939 31.9384C9.16952 31.6989 8.78308 31.4398 8.42389 31.1728C6.52667 29.7623 4.99596 27.8476 4.30698 26.3678C4.02188 25.7555 4.01894 25.0354 4.29903 24.4204C4.44352 24.1032 4.65481 23.8326 4.91135 23.6265C2.14128 21.1714 1.02286 17.7757 1.02286 15.5008C1.02286 14.8244 1.31306 14.1857 1.80954 13.7694C2.01829 13.5944 2.25372 13.4669 2.50191 13.3901C2.29463 12.7383 2.13376 12.0798 2.01116 11.4422C1.46755 8.61553 1.51579 5.4251 2.10666 2.88695C2.30885 2.0184 2.98169 1.36853 3.80732 1.24435C4.63296 1.12017 5.44616 1.54652 5.86277 2.32201C8.06676 6.4245 12.132 8.93213 15.9155 10.4176C17.6943 11.1159 19.3418 11.561 20.5766 11.8346C20.843 9.15345 21.5402 6.9424 22.6101 5.18627C24.0216 2.86936 25.9904 1.49854 28.1047 0.887303C31.751 -0.166825 35.7971 1.03414 38.4193 3.24042ZM19.9401 16.1786C18.5387 15.8764 16.6127 15.3688 14.5108 14.5436C11.7347 13.4537 8.51102 11.7542 5.8107 9.12164C5.85903 9.60608 5.92764 10.0864 6.01751 10.5537C6.47007 12.907 7.31099 14.2249 8.07396 14.6346C9.00712 15.1356 9.43958 16.3106 9.07759 17.3613C8.58751 18.784 7.29851 18.9008 6.12731 18.5863C7.06929 20.103 8.76239 21.6151 11.5864 22.1205C12.5604 22.2949 13.2794 23.1915 13.2953 24.2518C13.3112 25.312 12.6195 26.2332 11.6512 26.4411L9.87077 26.8235C10.1431 27.0778 10.4381 27.327 10.7525 27.5608C12.178 28.6206 13.6093 29.0777 14.8449 28.7459C15.7704 28.4975 16.7329 28.969 17.1648 29.8824C17.5967 30.7958 17.3833 31.9085 16.6505 32.5644C15.3334 33.7417 13.7952 34.6863 12.2536 35.4704C11.5298 35.8386 10.721 36.2018 9.84264 36.5217C10.5182 36.6764 11.2212 36.8035 11.9472 36.8994C15.5688 37.3776 19.5998 37.0552 23.3692 35.6638C27.1256 34.2772 30.5979 31.8404 33.1955 28.0901C35.7895 24.345 37.5996 19.1621 37.8423 12.1248C37.8614 11.5707 38.075 11.0449 38.44 10.6529C39.3598 9.66519 40.1198 8.53311 40.4937 7.18558C39.8393 7.40463 39.1026 7.59423 38.225 7.77441C37.5593 7.91107 36.8738 7.68476 36.3946 7.17012C34.8308 5.49079 31.7381 4.38644 29.1681 5.12941C27.9586 5.47908 26.8592 6.23607 26.0335 7.5914C25.1904 8.97519 24.5455 11.1309 24.5455 14.4026C24.5455 15.0242 24.3003 15.6167 23.8706 16.0331C22.852 17.0206 21.1377 16.4369 19.9401 16.1786Z" fill="#0F0F0F"/>
</svg>
