<svg width="55" height="42" viewBox="0 0 55 42" fill="none" xmlns="http://www.w3.org/2000/svg">
<path fill-rule="evenodd" clip-rule="evenodd" d="M21.762 9.64077C21.0527 9.2281 20.1813 9.23106 19.4748 9.64854C18.7682 10.066 18.3333 10.8349 18.3333 11.6667V30.3333C18.3333 31.1651 18.7682 31.934 19.4748 32.3515C20.1813 32.7689 21.0527 32.7719 21.762 32.3592L37.8037 23.0259C38.5177 22.6105 38.9583 21.8373 38.9583 21C38.9583 20.1627 38.5177 19.3895 37.8037 18.9741L21.762 9.64077ZM32.0477 21L22.9167 26.3126V15.6874L32.0477 21Z" fill="#0F0F0F"/>
<path fill-rule="evenodd" clip-rule="evenodd" d="M0 21C0 12.2506 0 7.87594 2.18835 4.80917C2.89509 3.81873 3.75054 2.94773 4.72329 2.22813C7.7353 0 12.0319 0 20.625 0H34.375C42.9681 0 47.2647 0 50.2767 2.22813C51.2495 2.94773 52.1049 3.81873 52.8117 4.80917C55 7.87594 55 12.2506 55 21C55 29.7494 55 34.1241 52.8117 37.1908C52.1049 38.1813 51.2495 39.0523 50.2767 39.7719C47.2647 42 42.9681 42 34.375 42H20.625C12.0319 42 7.7353 42 4.72329 39.7719C3.75054 39.0523 2.89509 38.1813 2.18835 37.1908C0 34.1241 0 29.7494 0 21ZM20.625 4.66667H34.375C38.7737 4.66667 41.7045 4.67307 43.9251 4.91803C46.0599 5.15353 46.9882 5.56379 47.5827 6.00355C48.1663 6.4353 48.6796 6.95791 49.1037 7.55217C49.5356 8.15745 49.9385 9.10264 50.1698 11.2763C50.4104 13.5372 50.4167 16.5214 50.4167 21C50.4167 25.4786 50.4104 28.4628 50.1698 30.7237C49.9385 32.8974 49.5356 33.8426 49.1037 34.4478C48.6796 35.0421 48.1663 35.5647 47.5827 35.9964C46.9882 36.4362 46.0599 36.8465 43.9251 37.082C41.7045 37.3269 38.7737 37.3333 34.375 37.3333H20.625C16.2263 37.3333 13.2955 37.3269 11.0749 37.082C8.94009 36.8465 8.01178 36.4362 7.41731 35.9964C6.83366 35.5647 6.32039 35.0421 5.89634 34.4478C5.46443 33.8426 5.0615 32.8974 4.83021 30.7237C4.58962 28.4628 4.58333 25.4786 4.58333 21C4.58333 16.5214 4.58962 13.5372 4.83021 11.2763C5.0615 9.10264 5.46443 8.15745 5.89634 7.55217C6.32039 6.95791 6.83366 6.4353 7.41731 6.00355C8.01178 5.56379 8.94009 5.15353 11.0749 4.91803C13.2955 4.67307 16.2263 4.66667 20.625 4.66667Z" fill="#0F0F0F"/>
</svg>
